<mxfile host="app.diagrams.net" modified="2023-03-07T05:51:59.319Z" agent="5.0 (Windows NT 10.0; Win64; x64) AppleWebKit/537.36 (KHTML, like Gecko) Chrome/110.0.0.0 Safari/537.36" etag="Xby8qrXgLeCU1Fy5A8hs" version="21.0.2" type="github">
  <diagram name="Page-1" id="7lBA7kvD_7xqQ8wuXruY">
    <mxGraphModel dx="976" dy="680" grid="1" gridSize="10" guides="1" tooltips="1" connect="1" arrows="1" fold="1" page="1" pageScale="1" pageWidth="850" pageHeight="1100" math="0" shadow="0">
      <root>
        <mxCell id="0" />
        <mxCell id="1" parent="0" />
        <mxCell id="OzWp20X-Q7MLgfGEOaph-7" value="" style="edgeStyle=orthogonalEdgeStyle;rounded=0;orthogonalLoop=1;jettySize=auto;html=1;" edge="1" parent="1" source="OzWp20X-Q7MLgfGEOaph-1" target="OzWp20X-Q7MLgfGEOaph-5">
          <mxGeometry relative="1" as="geometry" />
        </mxCell>
        <mxCell id="OzWp20X-Q7MLgfGEOaph-1" value="Ensamble" style="rounded=0;whiteSpace=wrap;html=1;" vertex="1" parent="1">
          <mxGeometry x="320" y="40" width="120" height="60" as="geometry" />
        </mxCell>
        <mxCell id="OzWp20X-Q7MLgfGEOaph-2" value="Voting Classifier" style="rounded=0;whiteSpace=wrap;html=1;" vertex="1" parent="1">
          <mxGeometry x="90" y="170" width="130" height="30" as="geometry" />
        </mxCell>
        <mxCell id="OzWp20X-Q7MLgfGEOaph-4" value="Stacking" style="rounded=0;whiteSpace=wrap;html=1;" vertex="1" parent="1">
          <mxGeometry x="240" y="170" width="120" height="30" as="geometry" />
        </mxCell>
        <mxCell id="OzWp20X-Q7MLgfGEOaph-16" value="" style="edgeStyle=orthogonalEdgeStyle;rounded=0;orthogonalLoop=1;jettySize=auto;html=1;" edge="1" parent="1" source="OzWp20X-Q7MLgfGEOaph-5" target="OzWp20X-Q7MLgfGEOaph-15">
          <mxGeometry relative="1" as="geometry" />
        </mxCell>
        <mxCell id="OzWp20X-Q7MLgfGEOaph-5" value="Bagging" style="rounded=0;whiteSpace=wrap;html=1;" vertex="1" parent="1">
          <mxGeometry x="380" y="170" width="120" height="30" as="geometry" />
        </mxCell>
        <mxCell id="OzWp20X-Q7MLgfGEOaph-18" value="" style="edgeStyle=orthogonalEdgeStyle;rounded=0;orthogonalLoop=1;jettySize=auto;html=1;" edge="1" parent="1" source="OzWp20X-Q7MLgfGEOaph-6" target="OzWp20X-Q7MLgfGEOaph-17">
          <mxGeometry relative="1" as="geometry" />
        </mxCell>
        <mxCell id="OzWp20X-Q7MLgfGEOaph-6" value="Boosting" style="rounded=0;whiteSpace=wrap;html=1;" vertex="1" parent="1">
          <mxGeometry x="530" y="170" width="120" height="30" as="geometry" />
        </mxCell>
        <mxCell id="OzWp20X-Q7MLgfGEOaph-8" value="" style="edgeStyle=orthogonalEdgeStyle;rounded=0;orthogonalLoop=1;jettySize=auto;html=1;exitX=0.5;exitY=1;exitDx=0;exitDy=0;" edge="1" parent="1" source="OzWp20X-Q7MLgfGEOaph-1" target="OzWp20X-Q7MLgfGEOaph-2">
          <mxGeometry relative="1" as="geometry">
            <mxPoint x="390" y="110" as="sourcePoint" />
            <mxPoint x="450" y="180" as="targetPoint" />
          </mxGeometry>
        </mxCell>
        <mxCell id="OzWp20X-Q7MLgfGEOaph-11" value="" style="edgeStyle=orthogonalEdgeStyle;rounded=0;orthogonalLoop=1;jettySize=auto;html=1;exitX=0.5;exitY=1;exitDx=0;exitDy=0;entryX=0.5;entryY=0;entryDx=0;entryDy=0;" edge="1" parent="1" source="OzWp20X-Q7MLgfGEOaph-1" target="OzWp20X-Q7MLgfGEOaph-4">
          <mxGeometry relative="1" as="geometry">
            <mxPoint x="390" y="110" as="sourcePoint" />
            <mxPoint x="165" y="180" as="targetPoint" />
          </mxGeometry>
        </mxCell>
        <mxCell id="OzWp20X-Q7MLgfGEOaph-14" value="" style="edgeStyle=orthogonalEdgeStyle;rounded=0;orthogonalLoop=1;jettySize=auto;html=1;exitX=0.5;exitY=1;exitDx=0;exitDy=0;" edge="1" parent="1" source="OzWp20X-Q7MLgfGEOaph-1" target="OzWp20X-Q7MLgfGEOaph-6">
          <mxGeometry relative="1" as="geometry">
            <mxPoint x="390" y="110" as="sourcePoint" />
            <mxPoint x="450" y="180" as="targetPoint" />
          </mxGeometry>
        </mxCell>
        <mxCell id="OzWp20X-Q7MLgfGEOaph-15" value="Random Forrest" style="rounded=0;whiteSpace=wrap;html=1;" vertex="1" parent="1">
          <mxGeometry x="375" y="230" width="130" height="40" as="geometry" />
        </mxCell>
        <mxCell id="OzWp20X-Q7MLgfGEOaph-17" value="Adaboost&lt;br&gt;Gradient Boost&lt;br&gt;XGBoost" style="rounded=0;whiteSpace=wrap;html=1;align=center;" vertex="1" parent="1">
          <mxGeometry x="530" y="230" width="120" height="50" as="geometry" />
        </mxCell>
        <mxCell id="OzWp20X-Q7MLgfGEOaph-21" value="" style="edgeStyle=orthogonalEdgeStyle;rounded=0;orthogonalLoop=1;jettySize=auto;html=1;entryX=0;entryY=0.5;entryDx=0;entryDy=0;" edge="1" parent="1" source="OzWp20X-Q7MLgfGEOaph-19" target="OzWp20X-Q7MLgfGEOaph-20">
          <mxGeometry relative="1" as="geometry" />
        </mxCell>
        <mxCell id="OzWp20X-Q7MLgfGEOaph-19" value="Voting Classifier" style="rounded=0;whiteSpace=wrap;html=1;" vertex="1" parent="1">
          <mxGeometry x="255" y="495" width="130" height="50" as="geometry" />
        </mxCell>
        <mxCell id="OzWp20X-Q7MLgfGEOaph-31" value="" style="edgeStyle=orthogonalEdgeStyle;rounded=0;orthogonalLoop=1;jettySize=auto;html=1;" edge="1" parent="1" source="OzWp20X-Q7MLgfGEOaph-20" target="OzWp20X-Q7MLgfGEOaph-30">
          <mxGeometry relative="1" as="geometry" />
        </mxCell>
        <mxCell id="OzWp20X-Q7MLgfGEOaph-20" value="DT" style="ellipse;whiteSpace=wrap;html=1;rounded=0;fontStyle=1" vertex="1" parent="1">
          <mxGeometry x="505" y="425" width="55" height="50" as="geometry" />
        </mxCell>
        <mxCell id="OzWp20X-Q7MLgfGEOaph-22" value="SVM" style="ellipse;whiteSpace=wrap;html=1;rounded=0;fontStyle=1" vertex="1" parent="1">
          <mxGeometry x="505" y="495" width="55" height="50" as="geometry" />
        </mxCell>
        <mxCell id="OzWp20X-Q7MLgfGEOaph-23" value="NB" style="ellipse;whiteSpace=wrap;html=1;rounded=0;fontStyle=1" vertex="1" parent="1">
          <mxGeometry x="505" y="565" width="55" height="50" as="geometry" />
        </mxCell>
        <mxCell id="OzWp20X-Q7MLgfGEOaph-24" value="" style="edgeStyle=orthogonalEdgeStyle;rounded=0;orthogonalLoop=1;jettySize=auto;html=1;entryX=0;entryY=0.5;entryDx=0;entryDy=0;exitX=1;exitY=0.5;exitDx=0;exitDy=0;" edge="1" parent="1" source="OzWp20X-Q7MLgfGEOaph-19" target="OzWp20X-Q7MLgfGEOaph-23">
          <mxGeometry relative="1" as="geometry">
            <mxPoint x="395" y="530" as="sourcePoint" />
            <mxPoint x="500" y="430" as="targetPoint" />
          </mxGeometry>
        </mxCell>
        <mxCell id="OzWp20X-Q7MLgfGEOaph-25" value="" style="edgeStyle=orthogonalEdgeStyle;rounded=0;orthogonalLoop=1;jettySize=auto;html=1;exitX=1;exitY=0.5;exitDx=0;exitDy=0;" edge="1" parent="1" source="OzWp20X-Q7MLgfGEOaph-19" target="OzWp20X-Q7MLgfGEOaph-22">
          <mxGeometry relative="1" as="geometry">
            <mxPoint x="395" y="530" as="sourcePoint" />
            <mxPoint x="500" y="570" as="targetPoint" />
          </mxGeometry>
        </mxCell>
        <mxCell id="OzWp20X-Q7MLgfGEOaph-26" value="D1" style="shape=process;whiteSpace=wrap;html=1;backgroundOutline=1;fontColor=#FF0000;" vertex="1" parent="1">
          <mxGeometry x="455" y="425" width="40" height="20" as="geometry" />
        </mxCell>
        <mxCell id="OzWp20X-Q7MLgfGEOaph-27" value="D1" style="shape=process;whiteSpace=wrap;html=1;backgroundOutline=1;fontColor=#FF0000;" vertex="1" parent="1">
          <mxGeometry x="455" y="495" width="40" height="20" as="geometry" />
        </mxCell>
        <mxCell id="OzWp20X-Q7MLgfGEOaph-29" value="D1" style="shape=process;whiteSpace=wrap;html=1;backgroundOutline=1;fontColor=#FF3333;" vertex="1" parent="1">
          <mxGeometry x="455" y="565" width="40" height="20" as="geometry" />
        </mxCell>
        <mxCell id="OzWp20X-Q7MLgfGEOaph-30" value="SPAM" style="whiteSpace=wrap;html=1;rounded=0;" vertex="1" parent="1">
          <mxGeometry x="685" y="485" width="80" height="70" as="geometry" />
        </mxCell>
        <mxCell id="OzWp20X-Q7MLgfGEOaph-32" value="" style="edgeStyle=orthogonalEdgeStyle;rounded=0;orthogonalLoop=1;jettySize=auto;html=1;exitX=1;exitY=0.5;exitDx=0;exitDy=0;entryX=0;entryY=0.5;entryDx=0;entryDy=0;" edge="1" parent="1" source="OzWp20X-Q7MLgfGEOaph-22" target="OzWp20X-Q7MLgfGEOaph-30">
          <mxGeometry relative="1" as="geometry">
            <mxPoint x="570" y="460" as="sourcePoint" />
            <mxPoint x="695" y="520" as="targetPoint" />
          </mxGeometry>
        </mxCell>
        <mxCell id="OzWp20X-Q7MLgfGEOaph-33" value="" style="edgeStyle=orthogonalEdgeStyle;rounded=0;orthogonalLoop=1;jettySize=auto;html=1;entryX=0.5;entryY=1;entryDx=0;entryDy=0;" edge="1" parent="1" target="OzWp20X-Q7MLgfGEOaph-30">
          <mxGeometry relative="1" as="geometry">
            <mxPoint x="565" y="585" as="sourcePoint" />
            <mxPoint x="735" y="530" as="targetPoint" />
          </mxGeometry>
        </mxCell>
        <mxCell id="OzWp20X-Q7MLgfGEOaph-38" value="" style="edgeStyle=orthogonalEdgeStyle;rounded=0;orthogonalLoop=1;jettySize=auto;html=1;" edge="1" parent="1" source="OzWp20X-Q7MLgfGEOaph-34" target="OzWp20X-Q7MLgfGEOaph-19">
          <mxGeometry relative="1" as="geometry" />
        </mxCell>
        <mxCell id="OzWp20X-Q7MLgfGEOaph-34" value="SPAM DATASET" style="shape=process;whiteSpace=wrap;html=1;backgroundOutline=1;fontColor=#FF3333;" vertex="1" parent="1">
          <mxGeometry x="115" y="500" width="70" height="40" as="geometry" />
        </mxCell>
        <mxCell id="OzWp20X-Q7MLgfGEOaph-35" value="SPAM" style="text;html=1;align=center;verticalAlign=middle;resizable=0;points=[];autosize=1;strokeColor=none;fillColor=none;" vertex="1" parent="1">
          <mxGeometry x="585" y="420" width="60" height="30" as="geometry" />
        </mxCell>
        <mxCell id="OzWp20X-Q7MLgfGEOaph-36" value="! SPAM" style="text;html=1;align=center;verticalAlign=middle;resizable=0;points=[];autosize=1;strokeColor=none;fillColor=none;" vertex="1" parent="1">
          <mxGeometry x="590" y="490" width="60" height="30" as="geometry" />
        </mxCell>
        <mxCell id="OzWp20X-Q7MLgfGEOaph-37" value="SPAM" style="text;html=1;align=center;verticalAlign=middle;resizable=0;points=[];autosize=1;strokeColor=none;fillColor=none;" vertex="1" parent="1">
          <mxGeometry x="595" y="555" width="60" height="30" as="geometry" />
        </mxCell>
        <mxCell id="OzWp20X-Q7MLgfGEOaph-39" value="" style="endArrow=none;dashed=1;html=1;rounded=0;" edge="1" parent="1">
          <mxGeometry width="50" height="50" relative="1" as="geometry">
            <mxPoint y="360" as="sourcePoint" />
            <mxPoint x="840" y="360" as="targetPoint" />
          </mxGeometry>
        </mxCell>
        <mxCell id="OzWp20X-Q7MLgfGEOaph-40" value="&lt;h1&gt;Voting Classifier&lt;/h1&gt;&lt;p&gt;&lt;br&gt;&lt;/p&gt;" style="text;html=1;strokeColor=none;fillColor=none;spacing=5;spacingTop=-20;whiteSpace=wrap;overflow=hidden;rounded=0;" vertex="1" parent="1">
          <mxGeometry x="30" y="375" width="210" height="35" as="geometry" />
        </mxCell>
        <mxCell id="OzWp20X-Q7MLgfGEOaph-42" value="&lt;h1&gt;ENSAMBLE&lt;/h1&gt;" style="text;html=1;strokeColor=none;fillColor=none;spacing=5;spacingTop=-20;whiteSpace=wrap;overflow=hidden;rounded=0;" vertex="1" parent="1">
          <mxGeometry x="30" y="20" width="210" height="35" as="geometry" />
        </mxCell>
        <mxCell id="OzWp20X-Q7MLgfGEOaph-43" value="" style="endArrow=none;dashed=1;html=1;rounded=0;" edge="1" parent="1">
          <mxGeometry width="50" height="50" relative="1" as="geometry">
            <mxPoint y="680" as="sourcePoint" />
            <mxPoint x="840" y="680" as="targetPoint" />
          </mxGeometry>
        </mxCell>
      </root>
    </mxGraphModel>
  </diagram>
</mxfile>
